<svg xmlns="http://www.w3.org/2000/svg" viewBox="0 0 64 64" id="potato-wedges"><path d="M44.00977,64H18.99121a4.89313,4.89313,0,0,1-4.86914-4.35938c-.61133-5.50585-1.22461-11.26953-1.83691-17.03027-.59375-5.583-1.18653-11.16308-1.77832-16.5A1.00029,1.00029,0,0,1,11.501,25h9.23047A3.77432,3.77432,0,0,1,24.501,28.76953.23089.23089,0,0,0,24.73145,29H38.27051a.2309.2309,0,0,0,.23047-.23047A3.77431,3.77431,0,0,1,42.27051,25H51.501a1.0003,1.0003,0,0,1,.99414,1.11035c-.59766,5.39063-1.19727,11.02832-1.79688,16.668-.60644,5.7041-1.21386,11.41016-1.81836,16.8623A4.8955,4.8955,0,0,1,44.00977,64ZM12.61719,27c.55176,5.001,1.10351,10.19922,1.65722,15.39941.61231,5.75684,1.22461,11.51758,1.83594,17.02051A2.89588,2.89588,0,0,0,18.99121,62H44.00977a2.89681,2.89681,0,0,0,2.88183-2.58008c.60449-5.44922,1.21094-11.15137,1.81738-16.85254C49.26855,37.31055,49.82715,32.05469,50.38477,27H42.27051A1.77171,1.77171,0,0,0,40.501,28.76953,2.2335,2.2335,0,0,1,38.27051,31H24.73145A2.2335,2.2335,0,0,1,22.501,28.76953,1.77172,1.77172,0,0,0,20.73145,27Z"></path><path d="M22.5 64a1.00025 1.00025 0 01-.98926-.8623C20.67383 57.11426 19.83691 50.83789 19 44.56348c-.83008-6.22559-1.66016-12.4502-2.48926-18.42578a.99976.99976 0 011.98047-.2754c.83008 5.9795 1.66113 12.208 2.49121 18.43653.83594 6.27148 1.67285 12.543 2.50879 18.56347a.99976.99976 0 01-.85254 1.12793A.95483.95483 0 0122.5 64zM40.502 64a1.0521 1.0521 0 01-.13476-.00879 1.00014 1.00014 0 01-.85742-1.125c.80859-5.97559 1.61718-12.20019 2.4248-18.4248.81543-6.27539 1.62988-12.55176 2.44531-18.5752a1.0002 1.0002 0 011.98242.26758c-.81542 6.02148-1.62988 12.29394-2.44433 18.56543-.80859 6.22851-1.61719 12.45605-2.42578 18.43457A1.00077 1.00077 0 0140.502 64zM33.20312 55H29.79883A5.30429 5.30429 0 0124.501 49.70215V39.29785A5.30429 5.30429 0 0129.79883 34h3.40429A5.3043 5.3043 0 0138.501 39.29785v10.4043A5.3043 5.3043 0 0133.20312 55zM29.79883 36A3.30169 3.30169 0 0026.501 39.29785v10.4043A3.30169 3.30169 0 0029.79883 53h3.40429A3.3017 3.3017 0 0036.501 49.70215V39.29785A3.3017 3.3017 0 0033.20312 36z"></path><path d="M31.501 64a.99942.99942 0 01-1-1V54a1 1 0 012 0v9A.99943.99943 0 0131.501 64zM31.501 36a.99942.99942 0 01-1-1V30a1 1 0 012 0v5A.99943.99943 0 0131.501 36zM13.501 27a.99942.99942 0 01-1-1V10a.99942.99942 0 011-1 11.46327 11.46327 0 016.65625 2.13086 10.53006 10.53006 0 014.06738 6.0498 1.00032 1.00032 0 01-1.94727.459 8.52484 8.52484 0 00-3.29785-4.89258 9.26548 9.26548 0 00-3.875-1.61035q-.29736-.05274-.60351-.085V26A.99943.99943 0 0113.501 27zM39.501 29.73047a1.002 1.002 0 01-.376-.07324 11.42019 11.42019 0 01-3.80176-2.52051.99963.99963 0 010-1.41406L48.75391 12.293a.99962.99962 0 011.41406 0 10.80972 10.80972 0 011.13672 14.32812 1.00035 1.00035 0 11-1.56836-1.24218 8.73993 8.73993 0 00-.31153-10.92774L37.48145 26.39258a9.38891 9.38891 0 002.3955 1.41113 1 1 0 01-.376 1.92676z"></path><path d="M43.31934 20.13965a1.01046 1.01046 0 01-.40137-.084A10.53024 10.53024 0 0136.501 10.5a10.77071 10.77071 0 0111-10.5.99943.99943 0 011 1V14.96a1 1 0 11-2 0V2.05176a8.707 8.707 0 00-8 8.44824 8.52964 8.52964 0 005.22168 7.72363 1.00017 1.00017 0 01-.40332 1.916zM18.50977 27a.99946.99946 0 01-.99707-.94238c-.01075-.18946-.01172-.36817-.01172-.55762a10.649 10.649 0 015.24609-8.9541A11.39011 11.39011 0 0128.501 15a.99943.99943 0 011 1v8.99023a1 1 0 01-2 0V17.05176a9.345 9.345 0 00-3.74414 1.2207 8.18359 8.18359 0 00-1.20508.85645A8.294 8.294 0 0019.501 25.5c0 .15039-.001.292.00781.44238a.999.999 0 01-.94043 1.05567C18.54883 26.999 18.5293 27 18.50977 27z"></path><path d="M37.99023 25.46973a.9968.9968 0 01-.707-.293L30.794 18.6875a.99962.99962 0 010-1.41406 11.34858 11.34858 0 017.85937-3.333h.00781a1 1 0 01.00782 2 9.28755 9.28755 0 00-5.71583 2.07812l5.74415 5.74415a1 1 0 01-.707 1.707zM28.502 17.91016a.99994.99994 0 01-.55664-1.83106 8.00684 8.00684 0 001.208-.99609 8.70733 8.70733 0 00.32031-11.63184l-9.19629 9.19629a.99989.99989 0 01-1.41406-1.41406L28.80371 1.293a.99962.99962 0 011.41406 0 10.77144 10.77144 0 01.34961 15.2041 10.00242 10.00242 0 01-1.51074 1.24414A.99585.99585 0 0128.502 17.91016zM33.48047 31a1.00216 1.00216 0 01-.71192-.29688l-6.208-6.249a9.27734 9.27734 0 00-2.00586 4.793.99993.99993 0 11-1.98828-.21484 11.336 11.336 0 013.24511-6.73731A.9971.9971 0 0126.51855 22h.002a.99928.99928 0 01.707.293l6.96484 7.00391A1 1 0 0133.48047 31z"></path><path d="M38.501 15.99023a.99942.99942 0 01-1-1v-.36035a1 1 0 012 0v.36035A.99942.99942 0 0138.501 15.99023zM32.46191 8.92969a.99994.99994 0 01-.60449-1.79688 9.39666 9.39666 0 01.88379-.583A11.39179 11.39179 0 0138.501 5a.99943.99943 0 011 1v.36035a1 1 0 01-1.74414.668 9.345 9.345 0 00-4 1.24414 7.33577 7.33577 0 00-.69239.4541A.99379.99379 0 0132.46191 8.92969zM35.52051 23h-7a1 1 0 010-2h7a1 1 0 010 2z"></path></svg>