<?xml version="1.0" encoding="utf-8"?>
<!-- Generator: Adobe Illustrator 25.2.3, SVG Export Plug-In . SVG Version: 6.00 Build 0)  -->
<svg version="1.1" id="Color_1_" xmlns="http://www.w3.org/2000/svg" xmlns:xlink="http://www.w3.org/1999/xlink" x="0px" y="0px"
	 viewBox="0 0 512 512" enable-background="new 0 0 512 512" xml:space="preserve">
<path fill="#E5E5E5" d="M359.978,47.959c0,0-16-48-56-24c0,0-16-16-48-16s-48,16-48,16c-40-24-56,24-56,24c-48,0-16,56-16,56v104.32
	c0,25.92,7.68,51.12,22,72.64c14.4,21.68,22,47.04,22,72.8c0,4.32-0.24,8.56-0.64,12.88l-10.24,101.84
	c-0.72,7.44,1.12,14.96,5.28,21.12c6,9.04,16.08,14.4,26.88,14.4h109.44c10.8,0,20.88-5.36,26.88-14.4
	c3.6-5.28,5.44-11.6,5.44-17.92c0-1.12-0.08-2.16-0.16-3.2l-10.24-101.84c-2.96-30.16,4.56-60.4,21.36-85.68
	c7.12-10.72,12.64-22.4,16.4-34.64c3.68-12.24,5.6-25.04,5.6-38v-104.32C375.978,103.959,407.978,47.959,359.978,47.959z"/>
<path fill="#E5E5E5" d="M151.978,87.959h208c8.8,0,16,7.2,16,16v104.32c0,12.96-1.92,25.76-5.6,38
	c-3.76,12.24-9.28,23.92-16.4,34.64c-16.8,25.28-24.32,55.52-21.36,85.68l10.24,101.84c0.08,1.04,0.16,2.08,0.16,3.2
	c0,6.32-1.84,12.64-5.44,17.92c-6,9.04-16.08,14.4-26.88,14.4h-109.44c-10.8,0-20.88-5.36-26.88-14.4c-4.16-6.16-6-13.68-5.28-21.12
	l10.24-101.84c0.4-4.32,0.64-8.56,0.64-12.88c0-25.76-7.6-51.12-22-72.8c-14.32-21.52-22-46.72-22-72.64v-104.32
	C135.978,95.159,143.178,87.959,151.978,87.959z M159.978,208.279c0,21.2,6.24,41.76,18,59.36c19.84,29.76,28.8,65.76,25.2,101.36
	l-10.16,101.84c-0.16,1.92,0.32,3.84,1.36,5.44c1.52,2.32,4.08,3.68,6.88,3.68h109.44c2.8,0,5.36-1.36,6.88-3.68
	c1.04-1.6,1.52-3.52,1.36-5.44l-10.16-101.84c-3.6-35.6,5.36-71.6,25.2-101.36c11.76-17.6,18-38.16,18-59.36v-56.32v-40h-192v40
	V208.279z"/>
<path fill="#C9C8C7" d="M375.978,103.959v24h-24v-16h-192v16h-24v-24c0-8.8,7.2-16,16-16h208
	C368.778,87.959,375.978,95.159,375.978,103.959z"/>
<path fill="#FF9700" d="M193.018,470.839l10.16-101.84c3.6-35.6-5.36-71.6-25.2-101.36c-11.76-17.6-18-38.16-18-59.36v-56.32h192
	v56.32c0,21.2-6.24,41.76-18,59.36c-19.84,29.76-28.8,65.76-25.2,101.36l10.16,101.84c0.16,1.92-0.32,3.84-1.36,5.44
	c-1.52,2.32-4.08,3.68-6.88,3.68h-109.44c-2.8,0-5.36-1.36-6.88-3.68C193.338,474.679,192.858,472.759,193.018,470.839z"/>
<path fill="#F9AF0B" d="M227.457,455.959c-4.732,0-8.43-4.086-7.96-8.794l7.564-75.784c4.156-41.074-6.184-82.656-29.113-117.055
	c-9.145-13.684-13.969-29.598-13.969-46.047v-24.32c0-4.418,3.582-8,8-8h128c4.418,0,8,3.582,8,8v24.32
	c0,16.449-4.824,32.363-13.953,46.023c-22.945,34.422-33.285,76.004-29.125,117.109l7.556,75.753
	c0.47,4.709-3.228,8.794-7.961,8.794H227.457z"/>
<path fill="#FF7F00" d="M199.445,406.426l-6.426,64.413c-0.16,1.92,0.32,3.84,1.36,5.44c1.52,2.32,4.08,3.68,6.88,3.68h109.44
	c2.8,0,5.36-1.36,6.88-3.68c1.04-1.6,1.52-3.52,1.36-5.44l-10.16-101.84c-0.603-5.962-0.724-11.928-0.63-17.881
	C276.03,377.736,238.567,397.63,199.445,406.426z"/>
<path fill="#FF9700" d="M219.497,447.165c-0.47,4.709,3.228,8.794,7.96,8.794h57.039c4.732,0,8.43-4.085,7.96-8.794l-7.556-75.753
	c-0.092-0.909-0.079-1.819-0.156-2.729c-18.997,12.809-39.361,23.222-60.466,30.579L219.497,447.165z"/>
<path fill="#C9C8C7" d="M332.619,366.599c-1.345-13.707-0.417-27.407,2.454-40.674c-8.443,8.916-17.45,17.341-26.924,25.193
	c-0.094,5.954,0.027,11.919,0.63,17.881l10.16,101.84c0.16,1.92-0.32,3.84-1.36,5.44c-1.52,2.32-4.08,3.68-6.88,3.68h-109.44
	c-2.8,0-5.36-1.36-6.88-3.68c-1.04-1.6-1.52-3.52-1.36-5.44l6.426-64.413c-8.112,1.823-16.293,3.15-24.512,3.984l-5.834,58.029
	c-0.72,7.44,1.12,14.96,5.28,21.12c6,9.04,16.08,14.4,26.88,14.4h109.44c10.8,0,20.88-5.36,26.88-14.4
	c3.6-5.28,5.44-11.6,5.44-17.92c0-1.12-0.08-2.16-0.16-3.2L332.619,366.599z"/>
<rect x="159.978" y="111.959" fill="#D5D4D6" width="192" height="40"/>
<rect x="159.978" y="111.959" fill="#B7A9A9" width="192" height="16"/>
<path fill="#E5E5E5" d="M359.978,87.959h-208c-8.8,0-16,7.2-16,16c0,0-32-56,16-56c0,0,16-48,56-24c0,0,16-16,48-16s48,16,48,16
	c40-24,56,24,56,24c48,0,16,56,16,56C375.978,95.159,368.778,87.959,359.978,87.959z"/>
<path fill="#FCD30D" d="M181.355,166.17c-11.628,6.977-6.401,42.241,5.246,35.252C198.23,194.445,193.003,159.182,181.355,166.17z"
	/>
<path fill="#FFFFFF" d="M224.234,35.088c-0.3,5.011,9.114-0.721,13.754-0.068c5.384,0.758,16.07,1.754,16.419-4.07
	c0.3-5.011-11.094-6.721-15.733-7.374C233.291,22.817,224.583,29.264,224.234,35.088z"/>
<path fill="#472B3C" d="M383.978,208.311V105.994c4.115-7.756,16.746-34.368,6.555-51.93c-4.738-8.164-13.172-12.82-25.102-13.875
	c-3.703-8.047-12.414-23.051-27.73-28.715c-10.238-3.797-21.27-2.812-32.863,2.906c-7.531-5.398-23.855-14.422-48.859-14.422
	s-41.328,9.023-48.859,14.422c-11.59-5.711-22.625-6.695-32.863-2.906c-15.316,5.664-24.027,20.668-27.73,28.715
	c-11.93,1.055-20.363,5.711-25.102,13.875c-10.191,17.562,2.439,44.174,6.555,51.93v102.316c0,27.52,8.07,54.172,23.336,77.074
	c15.746,23.617,22.863,52.184,20.039,80.43L161.17,467.658c-0.926,9.254,1.402,18.617,6.566,26.359
	c7.488,11.234,20.02,17.941,33.523,17.941h109.438c13.504,0,26.035-6.707,33.523-17.941c5.164-7.742,7.492-17.105,6.566-26.359
	l-10.184-101.844c-2.824-28.246,4.293-56.812,20.039-80.43C375.908,262.482,383.978,235.83,383.978,208.311z M135.268,62.088
	c2.367-4.066,7.988-6.129,16.711-6.129c3.426,0,6.48-2.203,7.582-5.449c0.066-0.191,6.602-19.027,20.301-24.051
	c6.895-2.527,14.965-1.059,24,4.359c3.109,1.871,7.133,1.367,9.73-1.16c0.578-0.559,14.457-13.699,42.387-13.699
	s41.809,13.141,42.344,13.656c2.594,2.594,6.629,3.102,9.773,1.203c9.039-5.418,17.113-6.887,24-4.359
	c13.699,5.023,20.234,23.859,20.293,24.031c1.09,3.266,4.145,5.469,7.59,5.469c8.723,0,14.344,2.062,16.711,6.129
	c3.17,5.449,1.643,14.86-1.322,23.609c-4.179-3.527-9.505-5.738-15.389-5.738h-208c-5.884,0-11.21,2.21-15.389,5.738
	C133.625,76.948,132.098,67.537,135.268,62.088z M324.682,367.408l10.184,101.844c0.559,5.578-0.844,11.223-3.957,15.891
	c-4.516,6.773-12.07,10.816-20.211,10.816H201.26c-8.141,0-15.695-4.043-20.211-10.816c-3.113-4.668-4.516-10.312-3.957-15.891
	l10.184-101.844c3.191-31.926-4.852-64.207-22.648-90.898c-13.508-20.266-20.648-43.848-20.648-68.199V103.959c0-4.41,3.59-8,8-8
	h208c4.41,0,8,3.59,8,8v104.352c0,24.352-7.141,47.934-20.648,68.199C329.533,303.201,321.49,335.482,324.682,367.408z"/>
<path fill="#472B3C" d="M351.978,103.959h-192c-4.418,0-8,3.582-8,8v96.352c0,22.766,6.676,44.812,19.305,63.762
	c18.82,28.234,27.328,62.371,23.953,96.129l-10.188,101.863c-0.367,3.738,0.574,7.52,2.656,10.645
	c3.031,4.539,8.098,7.25,13.555,7.25h109.438c5.457,0,10.523-2.711,13.555-7.254c2.082-3.121,3.023-6.902,2.656-10.66
	l-10.188-101.844c-3.375-33.758,5.133-67.895,23.953-96.129c12.629-18.949,19.305-40.996,19.305-63.762v-96.352
	C359.978,107.541,356.396,103.959,351.978,103.959z M327.361,263.197c-20.871,31.305-30.305,69.164-26.562,106.598l9.898,102.164
	H201.26l-0.289-0.312l10.188-101.852c3.742-37.434-5.691-75.293-26.562-106.598c-10.871-16.309-16.617-35.289-16.617-54.887v-88.352
	h176v24h-152c-4.418,0-8,3.582-8,8s3.582,8,8,8h152v48.352C343.978,227.908,338.232,246.889,327.361,263.197z"/>
<path fill="#472B3C" d="M180.4,71.115c1.148,0.574,2.371,0.844,3.57,0.844c2.938,0,5.762-1.617,7.164-4.422
	c0.043-0.098,5.117-9.723,22.312-3.988c4.207,1.406,8.727-0.871,10.121-5.059c1.398-4.191-0.867-8.723-5.059-10.121
	c-24.188-8.066-37.848,4.332-41.688,12.012C174.846,64.334,176.447,69.139,180.4,71.115z"/>
<path fill="#472B3C" d="M298.51,63.549c16.34-5.449,21.754,3.02,22.379,4.117c1.422,2.723,4.207,4.293,7.098,4.293
	c1.199,0,2.422-0.27,3.57-0.844c3.953-1.977,5.555-6.781,3.578-10.734c-3.844-7.68-17.496-20.082-41.688-12.012
	c-4.191,1.398-6.457,5.93-5.059,10.121C289.783,62.678,294.303,64.955,298.51,63.549z"/>
<path fill="#472B3C" d="M239.978,343.959h8c4.418,0,8-3.582,8-8s-3.582-8-8-8h-8c-4.418,0-8,3.582-8,8
	S235.561,343.959,239.978,343.959z"/>
<path fill="#472B3C" d="M247.978,431.959h-8c-4.418,0-8,3.582-8,8s3.582,8,8,8h8c4.418,0,8-3.582,8-8
	S252.396,431.959,247.978,431.959z"/>
<path fill="#472B3C" d="M271.978,367.959c4.418,0,8-3.582,8-8s-3.582-8-8-8h-8c-4.418,0-8,3.582-8,8s3.582,8,8,8H271.978z"/>
<path fill="#472B3C" d="M239.978,399.959c0-4.418-3.582-8-8-8h-8c-4.418,0-8,3.582-8,8s3.582,8,8,8h8
	C236.396,407.959,239.978,404.377,239.978,399.959z"/>
<path fill="#472B3C" d="M255.978,295.959h8c4.418,0,8-3.582,8-8s-3.582-8-8-8h-8c-4.418,0-8,3.582-8,8
	S251.561,295.959,255.978,295.959z"/>
<path fill="#472B3C" d="M287.978,447.959h-8c-4.418,0-8,3.582-8,8s3.582,8,8,8h8c4.418,0,8-3.582,8-8
	S292.396,447.959,287.978,447.959z"/>
<path fill="#472B3C" d="M279.978,399.959c4.418,0,8-3.582,8-8s-3.582-8-8-8h-8c-4.418,0-8,3.582-8,8s3.582,8,8,8H279.978z"/>
</svg>
