<?xml version="1.0" encoding="UTF-8" standalone="no"?> <svg class="svg-icon" style="width: 1em; height: 1em;vertical-align: middle;fill: currentColor;overflow: hidden;" viewBox="0 0 1024 1024" version="1.1" xmlns="http://www.w3.org/2000/svg"><path d="M367.957333 417.109333s28.842667-66.389333 144.042667-81.066666v80.896z" fill="#FBB040" /><path d="M341.333333 434.346667l10.410667-23.893334c1.365333-3.072 34.133333-75.434667 157.525333-91.306666l19.797334-2.56v117.248z m153.6-78.165334a180.565333 180.565333 0 0 0-92.672 44.032H494.933333z" fill="#BE1E2D" /><path d="M886.442667 649.728l-144.042667-86.357333 144.042667-86.528v172.885333z" fill="#FBB040" /><path d="M903.509333 679.765333L709.290667 563.2l194.218666-116.565333zM775.509333 563.2l93.696 56.32v-112.469333z" fill="#BE1E2D" /><path d="M238.933333 668.842667h423.253334c45.738667-31.061333 73.898667-67.072 73.898666-93.525334 0-55.125333-129.024-158.378667-288.085333-158.378666S160.597333 534.016 160.597333 575.317333c0 23.210667 30.037333 60.757333 78.336 93.525334z" fill="#FBB040" /><path d="M667.818667 685.909333H234.154667l-4.266667-3.242666c-42.154667-27.648-86.357333-70.826667-86.357333-107.349334 0-56.32 144.384-175.445333 304.981333-175.445333 165.546667 0 305.152 107.861333 305.152 175.445333 0 32.768-30.378667 73.045333-81.408 107.690667z m-423.082667-34.133333h412.501333c42.837333-30.208 62.122667-59.904 62.122667-76.458667 0-40.96-117.248-141.312-271.018667-141.312S177.664 546.133333 177.664 575.317333c0 12.629333 20.821333 44.373333 67.072 76.458667z" fill="#BE1E2D" /><path d="M314.026667 470.186667s52.906667 59.050667 22.357333 124.757333" fill="#FBB040" /><path d="M336.384 612.010667a17.066667 17.066667 0 0 1-15.530667-24.234667c25.429333-54.784-19.285333-105.642667-19.626666-106.154667a17.066667 17.066667 0 0 1 25.429333-22.698666c2.389333 2.730667 59.904 68.266667 25.258667 143.36a17.066667 17.066667 0 0 1-15.530667 9.728z" fill="#BE1E2D" /><path d="M261.9009 570.056684m-20.387724 20.401963a28.842667 28.842667 0 1 0 40.775449-40.803926 28.842667 28.842667 0 1 0-40.775449 40.803926Z" fill="#FBB040" /><path d="M261.973333 615.936a45.909333 45.909333 0 1 1 32.426667-78.336 45.909333 45.909333 0 0 1-32.426667 78.336z m0-57.514667a11.776 11.776 0 0 0-8.362666 3.413334 11.605333 11.605333 0 0 0-3.413334 8.362666 11.776 11.776 0 1 0 11.776-11.776z" fill="#BE1E2D" /><path d="M972.8 668.842667a144.042667 144.042667 0 0 1-144.042667 144.042666H195.242667A144.042667 144.042667 0 0 1 51.2 668.842667z" fill="#27AAE1" /><path d="M828.757333 829.952H195.242667A161.28 161.28 0 0 1 34.133333 668.842667v-17.066667h955.733334v17.066667a161.28 161.28 0 0 1-161.109334 161.109333zM69.461333 685.909333a127.146667 127.146667 0 0 0 125.781334 109.909334h633.514666a127.146667 127.146667 0 0 0 125.781334-109.909334z" fill="#2E3192" /><path d="M756.736 812.885333c0 31.744-34.133333 57.685333-76.458667 57.685334H343.722667c-42.325333 0-76.458667-25.770667-76.458667-57.514667z" fill="#27AAE1" /><path d="M680.277333 887.466667H343.722667c-51.2 0-93.525333-34.133333-93.525334-74.581334v-17.066666h523.605334v17.066666c0 40.448-41.984 74.581333-93.525334 74.581334zM290.133333 829.952A66.389333 66.389333 0 0 0 343.722667 853.333333h336.554666A66.389333 66.389333 0 0 0 733.866667 829.952z" fill="#2E3192" /><path d="M291.498667 283.989333H238.933333a60.928 60.928 0 1 1 0-121.856h87.210667a17.066667 17.066667 0 0 1 0 34.133334H238.933333a26.794667 26.794667 0 1 0 0 53.589333h51.2a17.066667 17.066667 0 1 1 0 34.133333z" fill="#808285" /><path d="M305.493333 354.133333h-38.058666a17.066667 17.066667 0 1 1 0-34.133333h38.058666a18.090667 18.090667 0 0 0 0-36.010667h-65.024a17.066667 17.066667 0 0 1 0-34.133333h65.024a52.224 52.224 0 0 1 0 104.277333z" fill="#808285" /><path d="M236.373333 397.824a17.066667 17.066667 0 0 1-17.066666-17.066667c0-50.005333 36.010667-60.928 50.005333-60.928a17.066667 17.066667 0 0 1 0 34.133334c-4.949333 0-16.213333 3.413333-16.213333 26.794666a17.066667 17.066667 0 0 1-16.725334 17.066667z" fill="#808285" /><path d="M610.645333 542.549333a17.066667 17.066667 0 0 1-10.922666-3.925333 245.418667 245.418667 0 0 0-109.568-47.274667 17.066667 17.066667 0 0 1 4.437333-34.133333A276.48 276.48 0 0 1 621.568 512a17.066667 17.066667 0 0 1-10.922667 30.208z" fill="#FFFFFF" /></svg>