<svg xmlns="http://www.w3.org/2000/svg" viewBox="0 0 24 24" fill="white">
<path d="M24 9a3 3 0 0 0-6 0 2.964 2.964 0 0 0 .061.6l-1.65.988-2.257-4.508a3 3 0 1 0-4.308 0l-2.257 4.508-1.65-.988A2.964 2.964 0 0 0 6 9a3 3 0 1 0-3.684 2.914l.6 5.409A2 2 0 0 0 2 19v2a2 2 0 0 0 2 2h16a2 2 0 0 0 2-2v-2a2 2 0 0 0-.918-1.677l.6-5.409A3 3 0 0 0 24 9Zm-3-1a1 1 0 1 1-1 1 1 1 0 0 1 1-1Zm-9-5a1 1 0 1 1-1 1 1 1 0 0 1 1-1ZM8 13a1.023 1.023 0 0 0 .279-.04 1 1 0 0 0 .616-.512l2.747-5.484A2.993 2.993 0 0 0 12 7a2.993 2.993 0 0 0 .358-.036l2.747 5.484a1 1 0 0 0 .616.512A1.017 1.017 0 0 0 16 13a1 1 0 0 0 .514-.142l2.591-1.551a3.032 3.032 0 0 0 .591.382L19.105 17H4.895L4.3 11.689a3.032 3.032 0 0 0 .591-.382l2.591 1.551A1 1 0 0 0 8 13ZM3 8a1 1 0 1 1-1 1 1 1 0 0 1 1-1Zm1 13v-2h16v2Z" data-name="30. Crown"/>
</svg>