<svg xmlns="http://www.w3.org/2000/svg" data-name="Layer 1" viewBox="0 0 64 64" id="popcorn"><path d="M53.8,22.27a3.08,3.08,0,0,0-1.63-2.71,5.33,5.33,0,0,0,.44-5.34,5.24,5.24,0,0,0-1.07-1.47A5.15,5.15,0,0,0,52,7.82,5.33,5.33,0,0,0,49.19,5a4.76,4.76,0,0,0-2.73-.26,5.44,5.44,0,0,0-.29-.86,5.25,5.25,0,0,0-2.83-2.82,4.63,4.63,0,0,0-3.58,0,4.68,4.68,0,0,0-.87.5A4.71,4.71,0,0,0,35.64.22h0a4.78,4.78,0,0,0-4.08,2.52A4.55,4.55,0,0,0,30,.83,4.65,4.65,0,0,0,26.3.11a5.23,5.23,0,0,0-3.18,2.14,4.68,4.68,0,0,0-.53,1,5.12,5.12,0,0,0-5.07,2.17,5.18,5.18,0,0,0-.8,4.23,7.4,7.4,0,0,0-.41.69,5.68,5.68,0,0,0-.39,1,5.05,5.05,0,0,0-4.7,2.87,5.25,5.25,0,0,0-.32,4,4.74,4.74,0,0,0,.81,1.48,3.06,3.06,0,0,0,.55,5.53l5.07,36.33A2.93,2.93,0,0,0,20.21,64H43.76a2.93,2.93,0,0,0,2.88-2.51l5.08-36.32A3.08,3.08,0,0,0,53.8,22.27Zm-9.45-3.09a5.35,5.35,0,0,0-.74-2.48,4.66,4.66,0,0,0,2.23-2.36,4.63,4.63,0,0,0,4.3-.25,3.15,3.15,0,0,1,.72,1,3.34,3.34,0,0,1-1,4.13Zm-14.29,0c0-.11,0-.22,0-.34a3.1,3.1,0,0,1,1.82-2.79,4.24,4.24,0,0,0,1.07.14l.29,0a4.66,4.66,0,0,0,3-1.34,4.7,4.7,0,0,0,2.5,1.35s.05,0,.07.05a1.21,1.21,0,0,0,.37.07,1,1,0,0,0,.17,0h.39a2.69,2.69,0,0,1,1.62.67,3.24,3.24,0,0,1,1.08,2.24Zm-1.93,0H26.25A5,5,0,0,0,25.72,17a4.89,4.89,0,0,0,.85.08,5,5,0,0,0,2.11-.48,5.32,5.32,0,0,0-.57,2.21C28.11,18.91,28.12,19,28.13,19.18ZM40.52,2.84a2.7,2.7,0,0,1,2.09,0,3.32,3.32,0,0,1,1.78,1.79A3.19,3.19,0,0,1,44.65,6a1,1,0,0,0,1.46.87,1.34,1.34,0,0,1,.24-.12,2.75,2.75,0,0,1,2.11,0,3.32,3.32,0,0,1,1.77,1.78,3.13,3.13,0,0,1-.73,3.59,2.43,2.43,0,0,1-.7.44,2.82,2.82,0,0,1-2.93-.51,1,1,0,0,0-1.59.64A2.78,2.78,0,0,1,42.78,15a5.28,5.28,0,0,0,.91-6.37h0A4.81,4.81,0,0,0,40.4,6.18a5.62,5.62,0,0,0,.07-.92A5.34,5.34,0,0,0,40,3.13,2.65,2.65,0,0,1,40.52,2.84ZM32.37,8a1,1,0,0,0,.7-1.35,3,3,0,0,1-.28-1.31,3,3,0,0,1,2.84-3.18A2.81,2.81,0,0,1,38,3.47h0a3.22,3.22,0,0,1,.54,1.79,3.58,3.58,0,0,1-.29,1.43,1,1,0,0,0,.1,1,1,1,0,0,0,.9.38l.28,0A2.81,2.81,0,0,1,42,9.53h0a3.27,3.27,0,0,1,.43,1.62,3,3,0,0,1-2.73,3.18h-.36l-.18,0a2.88,2.88,0,0,1-2.1-1.55,1,1,0,0,0-.85-.53,1,1,0,0,0-.86.51,2.8,2.8,0,0,1-2.29,1.5,2.32,2.32,0,0,1-1-.12,3.11,3.11,0,0,1-.72-.38,5.1,5.1,0,0,0,.18-3.38,4.72,4.72,0,0,0-.71-1.44A2.8,2.8,0,0,1,32.37,8ZM22.82,5.29a1,1,0,0,0,1.35-.7,3.06,3.06,0,0,1,.54-1.23A3.26,3.26,0,0,1,26.7,2a2.75,2.75,0,0,1,2.17.41A2.72,2.72,0,0,1,30,4.19a3.33,3.33,0,0,1-.56,2.45,3.39,3.39,0,0,1-1.05,1,1,1,0,0,0,0,1.68l.24.14.32.26a2.71,2.71,0,0,1,.74,1.21,3.21,3.21,0,0,1-.36,2.6.86.86,0,0,1-.07.1l0,.07a3.05,3.05,0,0,1-4.18,1s-.06-.07-.1-.09a5.4,5.4,0,0,0,.55-2.43A4.77,4.77,0,0,0,22.9,7.9,4.72,4.72,0,0,0,18.53,8a3.5,3.5,0,0,1,.58-1.53A3.06,3.06,0,0,1,22.82,5.29ZM13,15a3.08,3.08,0,0,1,3.51-1.71.93.93,0,0,0,.82-.14,1,1,0,0,0,.41-.74A3.28,3.28,0,0,1,18,11.16a2.94,2.94,0,0,1,.49-.72,2.92,2.92,0,0,1,3.5-.8,2.81,2.81,0,0,1,1.51,2.5,3.45,3.45,0,0,1-.37,1.6,3.19,3.19,0,0,1-.26.42,3,3,0,0,1-.63.69,1,1,0,0,0-.36.94,1,1,0,0,0,.66.75,1,1,0,0,1,.22.1,2.83,2.83,0,0,1,1.51,2.54H14.18l-.08,0a2.74,2.74,0,0,1-1.36-1.6A3.31,3.31,0,0,1,13,15Zm6.3,46.18-5-35.87H27.68v7.89a9.39,9.39,0,0,0,0,16.69V62.06H20.21A1,1,0,0,1,19.25,61.22ZM34.7,25.35v7.24a9.3,9.3,0,0,0-5.08-.09V25.35ZM32,51a9.7,9.7,0,0,0,2.71-.4V62.06H29.62V50.67A9.28,9.28,0,0,0,32,51Zm0-1.94a7.46,7.46,0,1,1,7.46-7.46A7.47,7.47,0,0,1,32,49.05ZM44.72,61.22a1,1,0,0,1-1,.84H36.63V49.75a9.37,9.37,0,0,0,0-16.32V25.35H49.74Zm6-37.81H13.29a1.15,1.15,0,1,1,0-2.29H50.71a1.15,1.15,0,1,1,0,2.29Z"></path></svg>