
<svg version="1.1" xmlns="http://www.w3.org/2000/svg" width="24" height="24" viewBox="0 0 24 24">
<title>beerking</title>
<path fill="#fff" d="M24 9c0-1.657-1.343-3-3-3s-3 1.343-3 3v0c0 0.001 0 0.001 0 0.002 0 0.212 0.022 0.418 0.064 0.618l-0.003-0.019-1.65 0.988-2.257-4.508c0.523-0.539 0.846-1.276 0.846-2.088 0-1.657-1.343-3-3-3s-3 1.343-3 3c0 0.812 0.323 1.549 0.847 2.089l-0.001-0.001-2.257 4.508-1.65-0.988c0.039-0.18 0.061-0.386 0.061-0.598 0-0.001 0-0.001 0-0.002v0c0-0.002 0-0.005 0-0.007 0-1.657-1.343-3-3-3s-3 1.343-3 3c0 1.414 0.979 2.6 2.296 2.917l0.020 0.004 0.6 5.409c-0.554 0.361-0.915 0.977-0.916 1.677v2c0 1.105 0.895 2 2 2v0h16c1.105 0 2-0.895 2-2v0-2c-0.002-0.701-0.364-1.316-0.91-1.672l-0.008-0.005 0.6-5.409c1.336-0.32 2.314-1.502 2.318-2.914v-0zM21 8c0.552 0 1 0.448 1 1s-0.448 1-1 1c-0.552 0-1-0.448-1-1v0c0-0.552 0.448-1 1-1v0zM12 3c0.552 0 1 0.448 1 1s-0.448 1-1 1c-0.552 0-1-0.448-1-1v0c0-0.552 0.448-1 1-1v0zM8 13c0.1-0 0.196-0.015 0.286-0.042l-0.007 0.002c0.271-0.080 0.49-0.265 0.613-0.506l0.003-0.006 2.747-5.484c0.103 0.018 0.227 0.031 0.352 0.036l0.006 0c0.131-0.005 0.255-0.018 0.375-0.038l-0.017 0.002 2.747 5.484c0.126 0.247 0.345 0.432 0.609 0.51l0.007 0.002c0.083 0.025 0.179 0.040 0.279 0.040h0c0 0 0 0 0 0 0.19 0 0.367-0.053 0.518-0.144l-0.004 0.003 2.591-1.551c0.172 0.143 0.366 0.27 0.574 0.374l0.017 0.008-0.591 5.311h-14.21l-0.595-5.311c0.225-0.112 0.419-0.239 0.596-0.386l-0.005 0.004 2.591 1.551c0.147 0.089 0.324 0.142 0.514 0.142 0.002 0 0.003 0 0.005 0h-0zM3 8c0.552 0 1 0.448 1 1s-0.448 1-1 1c-0.552 0-1-0.448-1-1v0c0-0.552 0.448-1 1-1v0zM4 21v-2h16v2z"></path>
</svg>
